<svg xmlns="http://www.w3.org/2000/svg" viewBox="0 0 40 56">
	<path fill="#000000" d="M16.56,35.73V29.35l-1.72.76a1.07,1.07,0,0,1-.41.1.75.75,0,0,1-.78-.78.77.77,0,0,1,.53-.77l2.38-1v-2l-1.72.74a1.07,1.07,0,0,1-.41.1.74.74,0,0,1-.78-.78.79.79,0,0,1,.53-.77l2.38-1V20.09a1,1,0,1,1,1.94,0v3l3.61-1.56a1.11,1.11,0,0,1,.41-.1.73.73,0,0,1,.78.78.79.79,0,0,1-.53.76L18.5,24.82v2l3.61-1.56a.86.86,0,0,1,.41-.12.79.79,0,0,1,.25,1.54L18.5,28.55v6.38a6.11,6.11,0,0,0,5.95-5.66c.08-.7.43-1,1-1a.93.93,0,0,1,.94,1.06c0,3.57-3.28,7.66-8.48,7.66A1.17,1.17,0,0,1,16.56,35.73Z"/>
	<path fill="#000000" d="M20,10.7A17.3,17.3,0,1,1,2.7,28,17.32,17.32,0,0,1,20,10.7m0-2.2A19.5,19.5,0,1,0,39.5,28,19.5,19.5,0,0,0,20,8.5Z"/>
</svg>
